<?xml version="1.0" standalone="no"?>
<!DOCTYPE svg PUBLIC "-//W3C//DTD SVG 20010904//EN"
 "http://www.w3.org/TR/2001/REC-SVG-20010904/DTD/svg10.dtd">
<svg version="1.0" xmlns="http://www.w3.org/2000/svg"
 width="1562.000000pt" height="1562.000000pt" viewBox="0 0 1562.000000 1562.000000"
 preserveAspectRatio="xMidYMid meet">
<metadata>
Created by potrace 1.14, written by Peter Selinger 2001-2017
</metadata>
<g transform="translate(0.000000,1562.000000) scale(0.100000,-0.100000)"
fill="#000000" stroke="none">
<path d="M6723 15579 c-70 -27 -144 -96 -179 -166 -29 -58 -29 -58 -31 -273
-9 -705 -9 -711 -30 -790 -3 -14 -7 -27 -8 -30 -21 -89 -94 -246 -132 -288 -7
-7 -13 -17 -13 -21 0 -13 -162 -177 -210 -213 -25 -18 -79 -51 -120 -72 -41
-21 -79 -42 -84 -47 -7 -6 76 -225 138 -364 26 -58 107 -253 183 -440 25 -60
56 -134 69 -163 13 -29 24 -55 24 -58 0 -2 36 -91 80 -196 44 -105 80 -197 80
-205 0 -7 5 -13 10 -13 6 0 10 -6 10 -14 0 -11 45 -123 109 -271 5 -11 15 -35
22 -53 11 -31 15 -33 43 -27 49 10 56 12 141 34 98 24 144 34 220 45 22 4 47
8 55 11 8 2 35 7 60 10 25 3 56 7 70 10 14 3 43 7 65 9 22 3 69 8 105 11 36 4
90 8 121 10 31 1 60 4 65 6 11 6 403 2 509 -5 91 -6 174 -13 225 -21 19 -3 53
-7 75 -10 35 -4 69 -9 190 -30 17 -3 41 -8 55 -11 14 -3 45 -10 70 -15 25 -5
54 -11 65 -14 256 -53 647 -196 930 -340 152 -77 398 -216 415 -235 13 -14 99
-70 108 -70 6 0 12 -3 14 -8 2 -4 42 -36 91 -72 48 -35 87 -68 87 -72 0 -4 6
-8 14 -8 8 0 16 -3 18 -7 2 -5 44 -42 93 -83 87 -72 355 -335 443 -433 24 -27
69 -82 101 -122 32 -40 64 -79 71 -87 59 -66 330 -481 330 -506 0 -6 4 -12 8
-14 9 -3 133 -249 176 -348 16 -36 34 -78 42 -95 20 -45 105 -277 110 -300 2
-11 8 -31 13 -45 10 -25 43 -140 62 -215 34 -129 58 -239 64 -294 3 -23 7 -46
9 -50 4 -5 14 -72 22 -146 2 -16 6 -46 8 -65 17 -125 29 -324 29 -500 0 -121
-10 -351 -17 -385 -2 -11 -7 -52 -11 -92 -4 -40 -8 -82 -10 -95 -16 -116 -23
-165 -30 -188 -2 -8 -7 -31 -10 -50 -3 -19 -14 -71 -25 -115 -10 -44 -21 -91
-23 -105 -21 -117 -158 -512 -238 -685 -13 -27 -24 -52 -24 -55 -3 -12 -86
-178 -93 -184 -4 -4 -7 -11 -8 -14 -1 -16 -38 -82 -46 -82 -4 0 -8 -9 -8 -19
0 -11 -4 -22 -9 -25 -5 -3 -28 -38 -51 -78 -24 -40 -64 -104 -89 -142 -25 -38
-50 -76 -56 -84 -26 -41 -195 -265 -209 -277 -6 -5 -22 -23 -34 -39 -93 -121
-427 -455 -516 -515 -11 -8 -25 -20 -31 -27 -5 -6 -46 -39 -90 -73 -44 -33
-85 -65 -90 -69 -38 -31 -265 -182 -274 -182 -6 0 -11 -4 -11 -10 0 -5 -5 -10
-10 -10 -6 0 -34 -15 -63 -33 -29 -18 -60 -36 -69 -40 -22 -8 -22 -15 -1 -63
9 -22 17 -41 18 -44 0 -3 11 -27 23 -54 12 -27 22 -52 22 -56 0 -4 6 -20 14
-36 8 -16 42 -96 76 -179 34 -82 67 -163 75 -180 7 -16 20 -50 30 -75 10 -25
26 -63 36 -85 9 -22 36 -87 59 -145 23 -58 45 -112 50 -121 5 -9 29 -67 54
-130 26 -63 51 -123 56 -134 23 -51 50 -114 50 -119 0 -2 28 -69 61 -148 34
-79 62 -149 62 -155 0 -7 4 -13 9 -13 4 0 7 -3 6 -7 -1 -5 6 -25 15 -46 14
-33 19 -36 39 -28 28 11 51 19 58 18 3 0 14 4 25 10 11 6 38 14 60 18 22 3 61
10 86 14 53 9 210 7 283 -4 128 -17 305 -93 421 -180 33 -25 191 -176 351
-335 329 -327 344 -338 469 -342 28 0 63 2 79 5 92 20 114 39 851 776 793 793
773 770 781 899 4 66 -3 105 -33 172 -9 20 -138 159 -309 330 -161 162 -303
309 -316 325 -40 50 -98 143 -114 182 -9 21 -22 52 -30 68 -17 38 -51 166 -60
225 -11 81 -3 297 13 323 3 5 7 23 10 40 7 46 43 136 108 272 81 170 176 392
219 515 21 58 44 117 52 132 8 15 14 30 13 35 -1 4 2 17 6 28 4 11 17 42 27
69 80 208 271 408 482 506 36 17 68 31 71 31 2 0 24 7 47 15 115 41 189 46
628 48 394 1 429 3 478 21 67 25 141 93 179 165 l28 55 0 1055 0 1055 -27 55
c-45 93 -116 155 -209 180 -30 9 -179 13 -479 15 -455 2 -480 5 -620 51 -61
20 -210 96 -210 106 0 4 -5 8 -11 8 -15 0 -89 60 -150 120 -91 90 -181 233
-224 355 -9 28 -20 57 -23 65 -3 8 -6 17 -7 20 -26 76 -121 323 -141 367 -13
28 -24 54 -24 57 0 3 -39 86 -86 186 -82 173 -139 318 -129 328 2 3 0 12 -5
21 -20 38 -29 231 -16 323 4 25 14 73 22 105 8 32 16 67 19 78 8 33 117 245
126 245 5 0 9 5 9 10 0 17 42 62 343 364 309 312 331 340 343 447 8 69 -9 148
-44 204 -14 22 -350 364 -746 760 -571 571 -731 726 -771 745 -41 20 -65 24
-140 24 -138 0 -147 -6 -473 -332 -345 -344 -391 -382 -537 -448 -127 -57
-227 -77 -385 -78 -209 -1 -282 16 -480 111 -138 67 -281 132 -300 138 -3 1
-22 9 -44 18 -21 9 -41 17 -45 17 -3 0 -17 6 -31 13 -14 7 -90 37 -170 66 -80
29 -170 62 -200 74 -226 83 -421 260 -528 478 -33 68 -68 169 -78 223 -3 17
-8 45 -11 61 -3 17 -6 217 -8 445 -1 348 -5 437 -20 500 -13 59 -94 149 -170
188 l-50 27 -1050 2 c-1029 2 -1051 2 -1102 -18z"/>
<path d="M3117 14085 c-20 -7 -44 -18 -52 -25 -8 -7 -15 -10 -15 -6 0 12 -72
-59 -763 -749 -385 -385 -711 -716 -724 -736 -13 -20 -26 -48 -29 -62 -2 -15
-8 -37 -12 -49 -17 -50 -4 -145 30 -213 12 -24 138 -158 307 -328 315 -318
295 -297 335 -350 127 -168 196 -385 190 -603 -2 -80 -16 -172 -37 -249 -19
-64 -14 -54 -106 -249 -39 -81 -71 -150 -71 -152 0 -2 -9 -23 -19 -47 -40 -87
-96 -228 -166 -419 -83 -227 -136 -323 -242 -438 -65 -69 -252 -210 -279 -210
-6 0 -29 -9 -51 -20 -42 -20 -158 -54 -228 -66 -22 -4 -227 -8 -456 -9 -229
-1 -433 -5 -454 -9 -78 -15 -166 -76 -210 -146 -53 -83 -51 -56 -50 -1160 l1
-1025 22 -56 c29 -72 97 -143 170 -177 l57 -26 410 -1 c373 -2 535 -8 558 -22
5 -3 23 -7 40 -10 41 -6 138 -43 207 -78 139 -70 270 -186 358 -317 29 -42 52
-79 52 -82 0 -3 13 -33 29 -68 16 -35 42 -99 57 -143 68 -201 203 -525 290
-697 39 -77 79 -178 90 -225 41 -180 37 -386 -8 -513 -3 -8 -16 -43 -27 -77
-27 -76 -78 -169 -134 -242 -23 -30 -171 -183 -328 -341 -320 -321 -340 -348
-341 -464 -1 -80 8 -121 39 -176 16 -27 313 -332 752 -771 693 -692 729 -727
786 -749 104 -39 205 -29 299 29 19 12 162 149 318 304 156 156 308 302 338
324 85 63 222 133 292 147 13 3 50 13 83 22 74 21 304 24 385 5 116 -27 163
-45 355 -136 176 -83 430 -191 500 -211 29 -8 190 -69 255 -96 165 -69 327
-201 424 -346 47 -72 103 -186 116 -237 1 -5 7 -21 12 -35 31 -81 37 -172 37
-587 1 -460 3 -473 60 -561 41 -63 122 -122 191 -140 32 -8 2038 -7 2085 1 59
10 96 28 152 74 44 35 90 103 98 143 2 12 7 31 11 43 4 12 8 213 10 447 2 435
4 467 25 542 7 24 14 50 15 60 10 50 105 234 149 287 116 141 205 215 347 287
l67 34 -47 112 c-25 62 -50 116 -55 119 -5 3 -8 9 -7 13 2 8 -15 57 -35 101
-8 17 -30 68 -48 115 -47 117 -155 379 -172 415 -7 17 -34 82 -59 145 -26 63
-51 124 -56 135 -10 21 -103 246 -196 475 -76 185 -74 182 -99 175 -27 -8
-176 -46 -195 -50 -138 -28 -291 -56 -328 -59 -26 -3 -47 -5 -47 -6 0 -1 -22
-4 -106 -14 -127 -15 -246 -20 -474 -19 -311 0 -409 8 -700 55 -38 6 -76 11
-82 11 -7 0 -13 3 -13 7 0 4 -10 7 -22 6 -13 -1 -39 3 -58 10 -20 6 -54 14
-75 17 -22 4 -65 14 -95 23 -30 9 -64 18 -76 20 -12 2 -88 26 -170 54 -82 27
-156 52 -166 54 -9 2 -30 12 -47 20 -17 9 -31 14 -31 12 0 -3 -30 9 -67 25
-38 17 -84 37 -103 46 -52 23 -300 147 -340 170 -356 205 -633 415 -911 692
-151 151 -249 259 -334 371 -28 36 -53 67 -56 70 -16 14 -219 306 -219 315 0
3 -23 42 -52 88 -63 100 -228 425 -228 450 0 9 -4 17 -10 17 -5 0 -10 7 -10
15 0 8 -9 30 -20 50 -11 19 -18 35 -15 35 2 0 -5 21 -16 48 -20 45 -114 316
-118 337 -1 6 -6 28 -12 50 -6 22 -11 42 -11 45 0 3 -4 12 -8 20 -4 8 -11 31
-14 50 -3 19 -11 53 -16 75 -6 22 -12 49 -14 60 -2 11 -9 45 -15 75 -22 109
-33 171 -47 285 -3 28 -7 61 -9 75 -14 101 -20 251 -20 475 0 227 4 323 19
442 2 15 7 57 11 93 3 36 8 72 10 80 6 21 16 79 20 115 4 34 13 82 21 107 3
10 7 29 10 43 8 45 13 70 39 175 39 155 147 470 200 585 7 17 26 57 41 90 53
117 139 286 197 385 26 44 180 283 187 290 3 3 25 34 50 70 24 36 49 70 55 75
6 6 30 35 53 65 23 30 52 67 64 81 13 14 48 55 78 90 66 76 284 295 361 361
29 26 68 59 84 73 17 15 46 38 65 53 19 15 37 30 40 33 15 18 292 214 351 249
14 8 66 39 116 69 l91 54 -42 101 c-24 55 -46 110 -51 121 -5 11 -9 22 -9 25
-1 3 -4 10 -7 15 -4 6 -25 57 -48 115 -23 58 -48 119 -55 135 -8 17 -42 98
-75 180 -34 83 -68 164 -76 180 -7 17 -33 80 -58 140 -112 276 -311 753 -323
778 -13 25 -16 26 -37 13 -18 -11 -51 -22 -87 -29 -3 0 -25 -7 -50 -15 -63
-20 -297 -25 -385 -8 -70 14 -171 43 -190 54 -5 4 -12 7 -15 8 -31 6 -167 85
-225 132 -16 13 -163 155 -325 316 -332 329 -343 337 -470 342 -44 2 -91 -3
-113 -11z"/>
<path d="M7767 11054 c-1 -1 -54 -4 -117 -7 -126 -7 -218 -14 -265 -22 -16 -2
-48 -7 -70 -10 -50 -8 -70 -11 -120 -20 -22 -4 -47 -9 -55 -10 -97 -18 -442
-122 -525 -159 -16 -7 -46 -20 -65 -27 -72 -29 -331 -161 -411 -210 -90 -55
-231 -148 -239 -158 -3 -4 -30 -24 -60 -46 -30 -22 -60 -44 -66 -50 -6 -5 -35
-30 -65 -55 -29 -25 -93 -83 -142 -130 -49 -47 -93 -86 -98 -88 -5 -2 -9 -7
-9 -11 0 -5 -19 -28 -42 -53 -55 -57 -140 -156 -152 -177 -5 -9 -18 -24 -28
-35 -10 -11 -30 -38 -45 -60 -15 -23 -31 -43 -34 -46 -12 -10 -142 -215 -186
-295 -44 -78 -142 -281 -173 -360 -40 -100 -117 -332 -125 -376 -3 -17 -10
-40 -16 -50 -5 -11 -7 -19 -5 -19 3 0 2 -10 -3 -23 -5 -13 -12 -41 -16 -63 -4
-21 -9 -48 -11 -59 -20 -110 -46 -298 -51 -375 -12 -182 -6 -548 11 -640 3
-14 7 -45 10 -70 5 -40 15 -99 31 -185 3 -16 15 -68 26 -115 12 -47 22 -92 24
-100 2 -8 12 -43 23 -77 11 -34 17 -65 14 -68 -3 -3 0 -5 6 -5 7 0 11 -3 10
-7 -2 -10 23 -95 32 -108 4 -5 13 -28 20 -50 24 -77 124 -289 197 -420 81
-143 249 -395 265 -395 4 0 8 -5 8 -10 0 -6 11 -23 24 -38 142 -164 181 -207
241 -267 39 -38 104 -99 145 -135 41 -36 77 -68 80 -71 3 -3 55 -43 115 -88
61 -45 115 -86 122 -91 35 -28 243 -151 339 -201 110 -57 313 -148 346 -154 9
-2 25 -8 35 -13 40 -20 249 -86 308 -97 11 -2 49 -11 85 -20 36 -9 79 -18 95
-21 17 -3 53 -9 81 -15 62 -12 110 -18 192 -25 35 -2 89 -8 120 -12 70 -9 399
-8 502 2 156 15 206 22 315 42 68 13 94 18 135 29 3 0 23 4 45 9 100 20 340
98 490 160 142 60 397 190 403 207 2 5 9 9 16 9 29 0 340 224 466 336 82 73
269 262 320 323 25 29 50 59 55 65 6 6 29 36 53 66 23 30 49 64 58 75 35 45
145 216 198 309 54 94 158 300 162 321 1 6 13 35 26 65 37 81 41 94 39 108 -1
6 4 12 10 12 7 0 10 3 6 6 -3 3 3 29 13 58 19 51 74 239 84 286 20 95 37 179
41 205 2 17 6 39 9 50 2 11 7 49 11 85 4 36 10 79 12 95 7 44 12 588 5 599 -3
5 -6 25 -7 45 -5 92 -49 340 -81 464 -3 12 -8 33 -11 47 -2 14 -7 32 -10 40
-8 19 -7 16 -22 70 -7 25 -21 70 -33 100 -11 30 -21 62 -23 70 -6 26 -95 231
-141 325 -51 102 -48 97 -103 188 -23 38 -41 71 -41 74 0 3 -16 28 -35 54 -19
27 -35 52 -35 55 0 3 -6 12 -12 19 -27 30 -38 44 -38 50 0 9 -147 195 -217
273 -114 128 -283 291 -363 351 -19 14 -37 29 -40 32 -13 16 -230 172 -284
204 -34 20 -83 50 -111 67 -51 32 -272 144 -335 171 -19 8 -62 26 -95 40 -33
14 -118 44 -190 67 -171 54 -191 60 -212 65 -119 25 -224 47 -252 51 -18 3
-43 8 -55 10 -11 2 -48 7 -81 10 -33 3 -71 7 -85 10 -38 7 -367 22 -373 18z
m233 -1639 c25 -4 56 -9 70 -10 103 -12 259 -58 400 -118 14 -6 27 -11 30 -11
14 -3 171 -94 215 -124 146 -102 287 -232 383 -357 38 -49 120 -175 114 -175
-4 0 -2 -4 4 -8 23 -15 135 -272 145 -330 0 -4 7 -22 14 -39 8 -18 12 -33 10
-33 -2 0 1 -15 6 -32 6 -18 12 -51 15 -73 3 -21 7 -42 9 -45 7 -11 18 -173 18
-260 1 -135 -18 -288 -47 -395 -1 -5 -8 -30 -15 -55 -41 -152 -148 -367 -251
-507 -84 -113 -225 -256 -326 -331 -38 -28 -74 -56 -81 -62 -7 -5 -15 -10 -19
-10 -4 0 -15 -6 -23 -14 -45 -40 -328 -166 -403 -180 -13 -3 -24 -5 -25 -7 -2
-1 -7 -3 -13 -4 -5 -1 -11 -3 -12 -5 -3 -2 -20 -6 -63 -14 -16 -3 -41 -8 -55
-11 -72 -14 -161 -20 -305 -19 -148 1 -182 4 -272 19 -18 3 -34 6 -35 5 -2 0
-45 11 -96 25 -522 140 -952 544 -1119 1053 -61 186 -82 314 -83 502 -1 180
17 300 73 505 6 22 49 130 68 171 11 24 24 54 30 66 5 13 15 32 22 43 7 11 25
43 41 70 30 50 117 172 152 211 72 81 99 107 174 172 106 91 96 83 177 135
185 119 414 211 577 232 21 3 41 7 45 9 3 2 35 7 71 11 36 4 66 8 67 9 6 5
275 -2 313 -9z"/>
</g>
</svg>
